<svg width="15" height="16" viewBox="0 0 15 16" fill="none" xmlns="http://www.w3.org/2000/svg">
<path d="M13.5 15.225C13.3417 15.225 13.1834 15.1667 13.0584 15.0417L7.62502 9.60835C6.74169 8.72502 6.74169 7.27502 7.62502 6.39168L13.0584 0.95835C13.3 0.716683 13.7 0.716683 13.9417 0.95835C14.1834 1.20002 14.1834 1.60002 13.9417 1.84168L8.50836 7.27502C8.10836 7.67502 8.10836 8.32502 8.50836 8.72502L13.9417 14.1583C14.1834 14.4 14.1834 14.8 13.9417 15.0417C13.8167 15.1584 13.6584 15.225 13.5 15.225Z" fill="#787486"/>
<path d="M7.50002 15.225C7.34169 15.225 7.18336 15.1667 7.05836 15.0417L1.62502 9.60835C0.741691 8.72502 0.741691 7.27502 1.62502 6.39168L7.05836 0.95835C7.30002 0.716683 7.70002 0.716683 7.94169 0.95835C8.18336 1.20002 8.18336 1.60002 7.94169 1.84168L2.50836 7.27502C2.10836 7.67502 2.10836 8.32502 2.50836 8.72502L7.94169 14.1583C8.18336 14.4 8.18336 14.8 7.94169 15.0417C7.81669 15.1584 7.65836 15.225 7.50002 15.225Z" fill="#787486"/>
</svg>
