<svg width="25" height="25" viewBox="0 0 25 25" fill="none" xmlns="http://www.w3.org/2000/svg">
<path d="M8.75 25H16.25C22.5 25 25 22.5 25 16.25V8.75C25 2.5 22.5 0 16.25 0H8.75C2.5 0 0 2.5 0 8.75V16.25C0 22.5 2.5 25 8.75 25Z" fill="#5030E5" fill-opacity="0.2"/>
<path d="M15.5002 8.18292C17.8829 8.18301 19.8166 10.1175 19.8166 12.5003C19.8164 14.8829 17.8828 16.8166 15.5002 16.8167H14.4933C14.1372 16.8167 13.8429 16.5225 13.8429 16.1663C13.8431 15.8103 14.1373 15.5169 14.4933 15.5169H15.5002C17.1638 15.5168 18.5166 14.1639 18.5168 12.5003C18.5168 10.8365 17.1639 9.4838 15.5002 9.4837H14.5002C14.144 9.4837 13.8498 9.18949 13.8498 8.83331C13.8498 8.47844 14.136 8.18292 14.5002 8.18292H15.5002Z" fill="#5030E5" stroke="#5030E5" stroke-width="0.3"/>
<path d="M10.5003 8.18292C10.8564 8.1831 11.1497 8.47725 11.1497 8.83331C11.1497 9.18938 10.8564 9.48352 10.5003 9.4837H9.50032C7.8365 9.4837 6.48372 10.8365 6.48372 12.5003C6.4839 14.164 7.83661 15.5169 9.50032 15.5169H10.5003C10.8562 15.5171 11.1496 15.8104 11.1497 16.1663C11.1497 16.5224 10.8564 16.8165 10.5003 16.8167H9.50032C7.11759 16.8167 5.18312 14.883 5.18294 12.5003C5.18294 10.1175 7.11748 8.18292 9.50032 8.18292H10.5003Z" fill="#5030E5" stroke="#5030E5" stroke-width="0.3"/>
<path d="M15.1663 11.8496C15.5225 11.8496 15.8167 12.1438 15.8167 12.5C15.8167 12.8562 15.5225 13.1504 15.1663 13.1504H9.83333C9.47716 13.1504 9.18294 12.8562 9.18294 12.5C9.18294 12.1438 9.47716 11.8496 9.83333 11.8496H15.1663Z" fill="#5030E5" stroke="#5030E5" stroke-width="0.3"/>
</svg>
