<svg width="20" height="20" viewBox="0 0 20 20" fill="none" xmlns="http://www.w3.org/2000/svg">
<path opacity="0.6" d="M12 14C12 15.77 11.23 17.37 10 18.46C8.94 19.42 7.54 20 6 20C2.69 20 0 17.31 0 14C0 11.24 1.88 8.89999 4.42 8.20999C5.11 9.94999 6.59 11.29 8.42 11.79C8.92 11.93 9.45 12 10 12C10.55 12 11.08 11.93 11.58 11.79C11.85 12.47 12 13.22 12 14Z" fill="#5030E5"/>
<path d="M16 6C16 6.78 15.85 7.53 15.58 8.21C14.89 9.95 13.41 11.29 11.58 11.79C11.08 11.93 10.55 12 10 12C9.45 12 8.92 11.93 8.42 11.79C6.59 11.29 5.11 9.95 4.42 8.21C4.15 7.53 4 6.78 4 6C4 2.69 6.69 0 10 0C13.31 0 16 2.69 16 6Z" fill="#5030E5"/>
<path opacity="0.4" d="M20 14C20 17.31 17.31 20 14 20C12.46 20 11.06 19.42 10 18.46C11.23 17.37 12 15.77 12 14C12 13.22 11.85 12.47 11.58 11.79C13.41 11.29 14.89 9.94999 15.58 8.20999C18.12 8.89999 20 11.24 20 14Z" fill="#5030E5"/>
</svg>
